Simulation
nRows=32
nColumns=15
endheader
time  TH_x TH_y TH_z SC_y  SC_z  SC_x  AC_y  AC_z  AC_x  GH_y  GH_z  GH_yy  EL_x  PS_y
8.6175  0.000000  0.000000  0.000000  -38.20237218716292  0.09780359810194024  -11.111597121691489  47.30816038138194  13.578047568080578  8.526892270767334  2.786217593395903  3.380329231925222  9.518260911735105  20.580679179775693  120.000000
8.67495  0.000000  0.000000  0.000000  -37.85179266931103  0.16568060434077278  -11.956726195639783  46.86160967345586  13.713262712238668  8.824593052177905  10.116057725576018  4.172657245107159  2.0685855564026183  20.512718996012953  120.000000
8.7324  0.000000  0.000000  0.000000  -37.44783789924237  0.1824669916207264  -12.861095678414895  46.57744956382609  13.837051536628588  9.235135657750929  18.434113277334863  5.267152083942804  -6.271174984340484  20.622467511300314  120.000000
8.78985  0.000000  0.000000  0.000000  -37.0371308689047  0.14858561140688037  -13.779253857660143  46.46998880971021  13.952562671361797  9.763124254812586  26.540818998009836  6.769064852561437  -14.337198168516533  20.89030286367899  120.000000
8.8473  0.000000  0.000000  0.000000  -36.67530314203776  0.08853417713143891  -14.670308305302656  46.52916323085033  14.070610531501089  10.396243497349804  33.59524753296983  8.759048847132414  -21.357292152344435  21.250822754981236  120.000000
8.90475  0.000000  0.000000  0.000000  -36.40559477822581  0.03550252413438655  -15.50577423132984  46.739114850014545  14.198728018469522  11.106224193618985  39.32588425003574  11.270426623385704  -27.133427979677332  21.62584644616603  120.000000
8.9622  0.000000  0.000000  0.000000  -36.24764592643245  0.014602420860527016  -16.266055071221306  47.08753784930613  14.334860739792761  11.859132299804354  43.84483064053542  14.29219083535044  -31.830112309175952  21.952968145311424  120.000000
9.01965  0.000000  0.000000  0.000000  -36.20546878327775  0.03973917691993032  -16.93160427228216  47.56006829983613  14.46698039483958  12.627656565433357  47.39130033915779  17.779403721602336  -35.701972867110356  22.199172833216295  120.000000
9.0771  0.000000  0.000000  0.000000  -36.27121231341923  0.11744529814388655  -17.47731856044273  48.13637638699304  14.578441903419012  13.393533354452835  50.19863491024151  21.66182801127223  -38.95862741470075  22.356552308964144  120.000000
9.13455  0.000000  0.000000  0.000000  -36.437320600044664  0.24878880935967315  -17.86881026592275  48.7943477778057  14.65922364253138  14.139994586492506  52.454112992061134  25.86107663848702  -41.73922134416989  22.42920716117543  120.000000
9.192  0.000000  0.000000  0.000000  -36.68981062850507  0.4400617110458011  -18.06344938499881  49.51930703230996  14.713464532078323  14.84282938127434  54.30011628376088  30.30047313832467  -44.128125019031636  22.420749103018895  120.000000
9.24945  0.000000  0.000000  0.000000  -37.00468092922359  0.7030331029600436  -18.01281603037175  50.30076636516465  14.755115041477664  15.473937316495519  55.84740517837184  34.905355249468045  -46.179123236402134  22.326079612055096  120.000000
9.3069  0.000000  0.000000  0.000000  -37.35299881745438  1.0503261677916556  -17.667222747172264  51.127157698402634  14.79899485870711  16.00927782000613  57.182623932279874  39.60428296082426  -47.931873290311714  22.13280382112336  120.000000
9.36435  0.000000  0.000000  0.000000  -37.706104109688354  1.4925678021973197  -16.98387058507464  51.98395061875952  14.8534178201801  16.432170896306886  58.36949531986668  44.32958987452156  -49.417798473926965  21.829790022959735  120.000000
9.421800000000001  0.000000  0.000000  0.000000  -38.04628184098173  2.0324668759271054  -15.93886309827709  52.853420715484425  14.913677975689376  16.73299476352461  59.445247281330765  49.01763338212242  -50.662912855599  21.418252232715243  120.000000
9.47925  0.000000  0.000000  0.000000  -38.37696624045251  2.6594872852844342  -14.537051213424483  53.715208300427555  14.960772525484073  16.907476585634623  60.41903348717828  53.608854951561284  -51.68931570143248  20.91962572854212  120.000000
9.5367  0.000000  0.000000  0.000000  -38.723148601400865  3.3465761714447906  -12.81584271211172  54.54798045343184  14.96559459398757  16.955108297697247  61.27536238691196  58.04733016928439  -52.515223650081445  20.373896317522934  120.000000
9.59415  0.000000  0.000000  0.000000  -39.117914378112694  4.051049708585421  -10.842876485811068  55.33172442679463  14.897360247254749  16.87801534060885  61.98743006282355  62.27430664249504  -53.15496862642728  19.828289041215264  120.000000
9.6516  0.000000  0.000000  0.000000  -39.581704786887194  4.724270342947536  -8.710811398980482  56.049445124504906  14.733048536752433  16.68013546759499  62.53351191568981  66.21855070702016  -53.61923863246076  19.32654436132203  120.000000
9.70905  0.000000  0.000000  0.000000  -40.107517820894884  5.323096407186338  -6.528834116027502  56.685468795574  14.464016075449189  16.370839913605142  62.91064621628732  69.78930474828957  -53.91617735842945  18.900821327340903  120.000000
9.7665  0.000000  0.000000  0.000000  -40.65570204794386  5.81602387181308  -4.413878779548478  57.22331256031549  14.095996116210449  15.969686912896307  63.13673191114034  72.87722471420085  -54.05394330341783  18.570277884358987  120.000000
9.82395  0.000000  0.000000  0.000000  -41.166527738308076  6.1851617671103725  -2.4833247611692713  57.64866326294752  13.644523105934885  15.50437270170297  63.24250481997734  75.36630640267339  -54.043751842855336  18.344070287384657  120.000000
9.8814  0.000000  0.000000  0.000000  -41.576148734711225  6.422379831389873  -0.8473941280569766  57.95188502435009  13.12897616076116  15.006784575240497  63.25868311245021  77.15151289876471  -53.90227593354403  18.223141964902943  120.000000
9.93885  0.000000  0.000000  0.000000  -41.83291048320632  6.524423768657129  0.39821139279576945  58.13058523965653  12.56909187968983  14.507684409748409  63.207676474651535  78.15651802788236  -53.65188673633736  18.197538692082034  120.000000
9.9963  0.000000  0.000000  0.000000  -41.9043349976593  6.488545370784567  1.1776781034601398  58.18760143195491  11.98311425030836  14.035254408657657  63.100640951004905  78.34376711776103  -53.31881787529714  18.246074638453944  120.000000
10.05375  0.000000  0.000000  0.000000  -41.78189133114383  6.311895037856293  1.4399013436330461  58.12675736239984  11.390048479705866  13.614347930203266  62.93966069003219  77.71704952553857  -52.926723552744846  18.340197439208513  120.000000
10.1112  0.000000  0.000000  0.000000  -41.482235165430836  5.994657091323155  1.1643298261692674  57.948210513993395  10.816575794371868  13.265538282853061  62.71973016283446  76.32032473131946  -52.4863388669275  18.450219111664026  120.000000
10.16865  0.000000  0.000000  0.000000  -41.04606298316665  5.544291178459811  0.3677361579259044  57.64694137305519  10.307082729835104  13.00189031357623  62.42897802603855  74.23480665667783  -51.98301593092624  18.54969717047328  120.000000
10.2261  0.000000  0.000000  0.000000  -40.53176250118076  4.979383997732676  -0.8948186682394321  57.215944310164716  9.925126974012215  12.827596112920379  62.04921711464133  71.57230386944242  -51.37436417984983  18.61771154943423  120.000000
10.28355  0.000000  0.000000  0.000000  -39.9993268037284  4.329216256782271  -2.5386685688603734  56.65266087121639  9.742426977393736  12.740818879852004  61.55960625338543  68.46174085684653  -50.600729356416245  18.641244078713573  120.000000
10.341000000000001  0.000000  0.000000  0.000000  -39.49496624781033  3.6311551925915246  -4.465603438620329  55.964066637835174  9.819241753900215  12.73846332677083  60.94393979010459  65.03041644507785  -49.60572146480907  18.622038322586732  120.000000
10.39845  0.000000  0.000000  0.000000  -39.03945575617202  2.9231783952858192  -6.580327371823152  55.16381204362916  10.187921530421912  12.821129584836928  60.19558927263927  61.384011999549074  -48.35308667452889  18.587629045111296  120.000000
